<svg xmlns="http://www.w3.org/2000/svg" viewBox="0 0 1003.43 741.75"><defs><style>.cls-1{fill:#040e2b;}</style></defs><g id="Layer_2" data-name="Layer 2"><g id="Layer_1-2" data-name="Layer 1"><path class="cls-1" d="M968.16,487.48c.82,26.68-18.23,46.33-37.24,54.17,22.11-31.25,24.4-71,5.9-102.79C954.26,447.1,967.55,467.46,968.16,487.48ZM984,459.6c8.77,20.69,7.55,54.38-8,74.77,17.16-7.39,27.59-21.85,27.44-38.41A43.71,43.71,0,0,0,984,459.6ZM130.45,239c-1,59.69-2.13,121.42-1.14,175.5.34,18.17,2.38,34.54,5.47,43.77,4.21,12.6,15.43,19.37,28.6,17.2,19.22-3.14,28.13-20.67,32.21-34.82a163.92,163.92,0,0,0,5.4-30.37c5.67-71.52,11.35-155.36,6.76-245.24,0-.62-.06-1.37-.07-2.14,0-1-.06-2.14-.12-3l-.1-1.17,1.15-.2c13.52-2.33,22.37-3.85,33.5-5.53,14.58-2.19,29.44-4.17,43.79-6.08l3.88-.52c3.66-.49,7.35-.91,11-1.32,6.53-.74,13.27-1.5,19.83-2.68,7.3-1.32,16.51-4.77,18.95-13.72a27.39,27.39,0,0,0,.45-11.26c-1.48-7.84-4.67-13.27-11.37-19.38-7.89-7.19-21.23-11.1-39.66-11.6-27.26-.72-38.87.67-64.34,3.75-15.34,1.86-46.51,8.55-60.4,12.17-7.8,2-36.4,10-54.54,16.47-17.36,6.15-48.8,17.75-64.34,24.29-11.39,4.78-20.94,9.24-30.49,15.44-6,3.91-11.53,9.89-13.4,14.55-2.07,5.17-2,8.86.28,12.29,3.37,5.12,9.92,7,14.83,7.66,12.5,1.71,27.46-1,40.67-3.3l3.85-.68c9.14-1.59,15.63-3,22.51-4.47,3.17-.68,6.41-1.38,10-2.12,3.45-.71,6.76-1.43,10.12-2.16,7.86-1.73,16-3.5,26.21-5.12l1.51-.24,0,1.52C131.19,197,130.82,217.94,130.45,239ZM468.37,577.37c11,39.27,11.38,71,1.16,106.17-14.32,44-49.69,65.47-92.31,56-23.45-5.21-43.45-23.36-53.51-48.54-9.22-23.09-12.32-50.19-9.23-80.53,3.34-32.9,13.36-58.39,32.49-82.67,11.82-15,23.09-22.4,37.7-24.8a41.21,41.21,0,0,1,6.61-.55c13.28,0,23.18,6.89,27.53,14.62l.59,1.06,1.09-.53c14.68-7.11,27.57,11,29,13.11C458.08,543.38,465,565.38,468.37,577.37Zm-51.85,7.55c-4.15-12-10.43-23.11-15.27-27.06l-1-.81-.8,1c-10.55,13-17.32,35.48-18.57,61.76-.72,15.19.53,28.32,3.94,41.31.23.85,5.6,20.93,14.82,24.33a8.78,8.78,0,0,0,3.93.95,9,9,0,0,0,3.46-.72c5.67-2.36,10-10.1,12.22-16.56,2.27-6.71,4.37-14,5.05-29.75C424.85,626.43,423.15,604.41,416.52,584.92ZM273.77,672.3c-3.84,1.79-7.56,5.14-11.15,8.38-1.88,1.69-3.64,3.27-5.34,4.57-.2.15-.38.32-.57.49s-.37.35-.57.51c-6.7,5.44-14.16,7.79-21.56,6.84a25.81,25.81,0,0,1-17.37-10.44c-5.92-8.17-9.82-19.25-11.94-33.89-2.58-17.79-2.06-26.91-1.64-34.25,1.2-21.33,5.21-40.52,11.58-55.5h0c3.22-7.56,9.25-14.71,16.39-12.14,7.59,2.73,10.39,14.47,12.42,23l.67,2.81c2.5,10.45,5.61,23.44,13.22,28.68,4.32,3,9.36,3.59,15,1.87,4.65-1.43,8.3-5.54,10.85-12.24,3-8,5-27.79,1.31-41.86-5.5-20.88-16.22-35-31.87-41.89a71.11,71.11,0,0,0-28.89-6.09c-24.82,0-49.88,12.66-67.87,35.75S128.78,591,129.1,624c.28,26.48,8.49,56.61,20.43,75,17.64,27.11,44.17,41.74,72.65,40,13.94-.83,39.86-5.42,56.75-26.78,8.37-10.59,13-29.2,6.57-38.25C282.72,670.27,279.2,669.78,273.77,672.3ZM592.9,363.41c1.32,12.24,2.46,22.82,4.07,32.09,6,34.71,16.52,57.74,32,70.42a49.06,49.06,0,0,0,31,10.89h.08c11,0,20.91-3.84,27.19-10.55,6-6.42,8.73-15.2,8-26.08-1-15.48-4.47-31.38-8.13-48.21-2-9.18-4.06-18.67-5.78-28.4-6.51-36.69-9.56-54.73-13.77-97.59-4.24-45.49-5.64-79.1-5-119.92C663.37,96,666.41,43.7,683,0a82.31,82.31,0,0,0-15.37,8c-15.84,11.14-28.65,26.91-40.34,49.65-18.38,35.77-29,76.39-34.33,131.68-5.64,52.11-5.89,111.58-.72,167.48ZM304.05,471.14c-21.55.71-38.73-10.37-49.6-32.14-11.18-22.37-14.71-47.58-11.42-81.74,3.81-39.62,14.64-69.62,34.1-94.43l.29-.36c.86-1.1,2.28-2.92,3-3.77,11.23-12.53,26.05-25.77,45.58-25.77a48,48,0,0,1,15.55,2.7l1.15.39.45-1.12c4.16-10.37,9-16.5,14.91-18.75,5.54-2.11,12.21-1.06,21,3.29,20.62,10.25,33,27.32,37.95,52.19,5.28,26.72,7.77,53.91,10.17,80.21.89,9.79,1.79,19.62,2.83,29.52.46,4.3.92,8.51,1.38,12.7,1.46,13.27,2.84,25.8,3.82,40.14,1.2,17.35-1.76,29.17-20.13,34.44-16.8,4.84-28.1-.73-34.56-17a203.71,203.71,0,0,1-7.47-22.2c-.54-1.93-1.13-3.95-1.79-6.2l-.28-.9-.91-.06c-1.08-.11-1.27.75-1.46,1.22a105.38,105.38,0,0,1-7.49,13.42C348.08,457.58,326.74,470.38,304.05,471.14ZM351,353.9c3.84-19.24,5.74-45.57-1.52-56.46a10.27,10.27,0,0,0-6.55-4.71c-7-1.41-14.8,3.27-21.3,12.86-8.37,12.32-14.62,32.07-16.72,52.83-2.08,20.61-.09,45.64,12.32,48.38h0a11.35,11.35,0,0,0,2.08.2C331.83,407,344.62,385.79,351,353.9Zm407.38,8.55c4.21,4.36,9,9.3,15.15,15.95,10,10.88,15.74,19.41,18.42,27.68,1.3,4,2.13,9.74-1.31,14.56a14.1,14.1,0,0,1-9,5.09c-9.58.87-19.17-6.83-29.34-23.55-1.89-3.1-8.78-13.33-17.94-14.22-.45,0-.88-.06-1.32-.06a10.89,10.89,0,0,0-4.27.85,12.47,12.47,0,0,0-5.44,4.68c-2.94,4.45-3,10.22-2.58,15.27,1.12,15.28,8.43,36.08,22.23,48.06,16.25,14.12,35,20.25,61,20,13.28-.32,33.6-5.5,46.77-16.15,28.52-23.05,28-62.83,12.94-88.54-7.68-13.17-18.67-23.22-29.31-32.93-3.33-3-6.75-6.17-10-9.32-15.48-15.07-30.3-31.65-34-50.65-1.93-8.72-1.81-15.29.35-20.66a11.34,11.34,0,0,1,9.89-7.17,15.22,15.22,0,0,1,10.13,3.33c4.25,2.93,8,7.64,13.17,14.49,7.34,9.68,14.14,11,18.51,10.42a15.65,15.65,0,0,0,12-9.76c3.18-7.87,2.43-16-2.45-26.43-7.87-16.81-18.73-27.65-34.17-34.13a61.78,61.78,0,0,0-27.57-5c-23.37.93-44.87,11.42-57.51,28.06-25.3,33.3-20.31,79,12.7,116.47C749.7,353.52,753.71,357.66,758.36,362.45ZM509,471.91a71.66,71.66,0,0,0,15.87-3.15c15.85-5.89,24.13-17,26.08-34.94A253.91,253.91,0,0,0,552.09,399c-1-35.43-2.05-72.05-6.59-108.5-2.92-23.43-11.88-42.11-25.9-54-9.92-8.41-22.36-13.8-32.47-14.08h-1c-6.17,0-11,1.67-14.35,5-4,3.92-5.95,10.13-5.85,18.47.18,16.72,1.27,37.59,2.52,61.73l.48,9.23c1,19,1.72,34.1,2.3,46.3.84,17.23,1.4,28.62,2,37s1.79,24,3.64,35.68C480,455.38,486.08,473.34,509,471.91ZM899.94,497c-11.77,17-33.49,36.49-70.17,33.17-14.08-1.28-21.83-5.85-32.54-12.19-4.94-2.92-10.53-6.23-17.75-9.85-13.26-6.65-26.88-7.68-39.39-3-15.91,6-29.08,20.88-38.07,43-5.33,13.14-11.28,32.19-11.34,32.39,0,0-3.34,10.1-7.42,22.74l-1.5,4.66-1-4.8c-.85-4.2-1-5.42-1.2-6.82-.26-1.94-.55-4.13-2.88-15.43-5.76-28-14.15-45.61-20.18-55.45-9.95-16.26-24.43-27.06-38.7-28.87-11.14-1.44-22,2.59-31.35,11.62-11.82,11.42-23,34.22-30.7,62.55l-2,7.43-.5-7.69a116.88,116.88,0,0,0-6.86-31.5c-5.09-12.63-13-21.31-21.26-23.21a18.65,18.65,0,0,0-4.25-.5A15,15,0,0,0,510.83,519c-4.95,4.35-7.16,12.2-6.2,22.08.63,6.48,1.25,11.34,1.85,16,1.23,9.8,2.4,19,3.74,41.58,1.79,30.13,2.07,53,2.33,75.19.14,12.09.28,23.52.65,36,.38,13.07,5.15,21.74,14.56,26.52,5.71,2.88,13,2.94,17.75,1.73,17.09-4.4,24.92-15.15,29.9-41.08q2.55-13.29,4.9-25.22c3-15.32,5.6-28.55,7.67-40.38,3.2-18.31,8.47-41.19,13-51,3.55-7.7,7.48-8.93,10.15-8.64,5.76.67,11,9,13.55,21.79,2.79,9,6.36,28.6,9.51,45.9C639,666.16,641,675,644.14,687.6,650,711.44,660.47,718.39,668.2,720c11.86,2.51,28.68,2.19,37.67-29.55,2.32-8.2,4.22-14.85,5.85-20.6,6.13-21.43,8.65-30.3,16.36-60.3a135.14,135.14,0,0,1,6.57-20.28c2.29-5.18,6-8.2,10-8.13,3.18.06,5.89,2.16,7.25,5.63,2.87,7.3,2.32,21.41,1.63,39.28-.31,8.07-.67,17.22-.71,26.53,0,7.64-.15,14.49-.25,20.72-.31,19.53-.53,32.44,1.84,44.06,1.55,7.69,5.78,13.18,12.55,16.3a30.85,30.85,0,0,0,29.18-2.23c10.3-6.39,16.43-17.84,16.82-31.43.23-7.91.52-15.92.8-24,.74-21.07,1.51-42.85,1.33-64,.18-8.71.65-29.28,1-33.41l.1-1.23,1.24.06c29.93,1.49,51.25-5.17,69.12-21.56a95.78,95.78,0,0,0,25.31-38c8.78-23.88,7.2-48.94,4.25-62.56C915.18,464,912.07,479.49,899.94,497ZM84.59,681.68c-9.37,1.91-17,6.71-21.39,13.49-4.2,6.44-5.46,14.3-3.64,22.71,3.11,15,10.91,20.45,25.27,17.73,14-2.66,24.06-8.05,29.09-15.59,3.52-5.28,4.56-11.53,3.09-18.56C113.64,685.37,101.85,678.17,84.59,681.68ZM506.25,197.17c16.21,2.76,24.87-3.57,28-20.5,1.86-9.51.27-18.31-4.6-25.45-5.13-7.53-13.77-12.75-24.33-14.69a46.89,46.89,0,0,0-8.42-.82c-14.8,0-24.69,8.37-27.6,23.79-1.49,7.95-.18,14.95,3.9,20.81C479.06,188.67,490.48,194.5,506.25,197.17Z"/><path class="cls-1" d="M887.34,235.6h-6.46V253H878V235.6h-6.59V233h16ZM912.9,253H910V236.18h-.09L903.15,253h-1.89l-6.74-16.79h-.1V253h-2.91V233H896l6.26,15.33L908.54,233h4.36Z"/></g></g></svg>